<svg width="24" height="24" viewBox="0 0 24 24" fill="none" xmlns="http://www.w3.org/2000/svg">
<path d="M19.7175 9.61097V3.99663C19.7175 3.4444 19.2693 2.99622 18.7171 2.99622H16.8593C16.3071 2.99622 15.8589 3.4444 15.8589 3.99663V6.30359" stroke="white" stroke-width="1.5" stroke-linecap="round" stroke-linejoin="round"/>
<path d="M2.99658 10.7134L10.6978 4.11268C11.4471 3.47041 12.5526 3.47041 13.3019 4.11268L21.0041 10.7134" stroke="white" stroke-width="1.5" stroke-linecap="round" stroke-linejoin="round"/>
<path d="M4.2832 9.61096V19.0029C4.2832 20.1083 5.17858 21.0037 6.28404 21.0037H11" stroke="white" stroke-width="1.5" stroke-linecap="round" stroke-linejoin="round"/>
<path d="M18.3459 20.0263L20.1016 20.9486C20.4438 21.1287 20.8429 20.8376 20.7779 20.4574L20.4428 18.5026L21.8634 17.119C22.1405 16.8499 21.9874 16.3797 21.6053 16.3247L19.6424 16.0396L18.7651 14.2599C18.594 13.9137 18.0998 13.9137 17.9297 14.2599L17.0524 16.0396L15.0896 16.3247C14.7074 16.3807 14.5543 16.8499 14.8314 17.119L16.252 18.5026L15.9159 20.4584C15.8509 20.8386 16.25 21.1287 16.5922 20.9496L18.3479 20.0273" stroke="#B12028" stroke-width="1.5" stroke-linecap="round" stroke-linejoin="round"/>
</svg>
