<svg width="44" height="44" viewBox="0 0 44 44" fill="none" xmlns="http://www.w3.org/2000/svg">
<path d="M40.3334 16.5L35.53 18.3333" stroke="#B12028" stroke-width="1.5" stroke-linecap="round" stroke-linejoin="round"/>
<path d="M8.48842 18.3333L3.66675 16.5" stroke="#B12028" stroke-width="1.5" stroke-linecap="round" stroke-linejoin="round"/>
<path d="M33.4583 25.6667H28.875" stroke="#B12028" stroke-width="1.5" stroke-linecap="round" stroke-linejoin="round"/>
<path d="M15.1251 25.6667H10.5417" stroke="#B12028" stroke-width="1.5" stroke-linecap="round" stroke-linejoin="round"/>
<path d="M35.5282 18.3333L33.9901 10.9779C33.5446 8.85492 31.6727 7.33325 29.5021 7.33325H14.6887C12.5602 7.33325 10.7104 8.79992 10.2264 10.8734L8.48291 18.3333" stroke="#B12028" stroke-width="1.5" stroke-linecap="round" stroke-linejoin="round"/>
<path fill-rule="evenodd" clip-rule="evenodd" d="M5.95841 36.6666H10.0834C11.6014 36.6666 12.8334 35.4346 12.8334 33.9166V32.0833H31.1667V33.9166C31.1667 35.4346 32.3987 36.6666 33.9167 36.6666H38.0417C39.3067 36.6666 40.3334 35.6399 40.3334 34.3749V23.8333C40.3334 20.7954 37.8712 18.3333 34.8334 18.3333H9.16675C6.12891 18.3333 3.66675 20.7954 3.66675 23.8333V34.3749C3.66675 35.6399 4.69341 36.6666 5.95841 36.6666Z" stroke="#B12028" stroke-width="1.5" stroke-linecap="round" stroke-linejoin="round"/>
</svg>
