<svg width="24" height="24" viewBox="0 0 24 24" fill="none" xmlns="http://www.w3.org/2000/svg">
<path d="M12.4693 3.02278C13.833 4.38649 13.833 6.5975 12.4693 7.96121C11.1056 9.32492 8.89455 9.32492 7.53084 7.96121C6.16713 6.5975 6.16713 4.38649 7.53084 3.02278C8.89455 1.65907 11.1056 1.65907 12.4693 3.02278" stroke="#e4253a" stroke-width="1.5" stroke-linecap="round" stroke-linejoin="round"/>
<path d="M14.363 12.7962C13.064 12.2772 11.54 11.9912 10 11.9912C5.952 11.9912 2 13.9582 2 16.9832V17.9832C2 18.5352 2.448 18.9832 3 18.9832H12.413" stroke="#e4253a" stroke-width="1.5" stroke-linecap="round" stroke-linejoin="round"/>
<path d="M17 22C14.239 22 12 19.762 12 17C12 14.296 14.3 11.997 17.004 12C19.764 12.002 22 14.24 22 17C22 19.761 19.762 22 17 22" stroke="#e4253a" stroke-width="1.5" stroke-linecap="round" stroke-linejoin="round"/>
<path d="M17 17.25V19.25" stroke="#e4253a" stroke-width="1.5" stroke-linecap="round" stroke-linejoin="round"/>
<path d="M16.999 14.778C16.922 14.778 16.86 14.84 16.861 14.917C16.861 14.994 16.923 15.056 17 15.056C17.077 15.056 17.139 14.994 17.139 14.917C17.139 14.84 17.077 14.778 16.999 14.778" stroke="#e4253a" stroke-width="1.5" stroke-linecap="round" stroke-linejoin="round"/>
</svg>
