<svg width="24" height="24" viewBox="0 0 24 24" fill="none" xmlns="http://www.w3.org/2000/svg">
<path fill-rule="evenodd" clip-rule="evenodd" d="M5.984 21H4C3.448 21 3 20.552 3 20V14C3 13.448 3.448 13 4 13H5.984C6.536 13 6.984 13.448 6.984 14V20C6.984 20.552 6.536 21 5.984 21Z" stroke="#e4253a" stroke-width="1.5" stroke-linecap="round" stroke-linejoin="round"/>
<path d="M12.9599 17.0001H15.2839C15.7149 17.0001 16.1339 16.8601 16.4789 16.6001L18.8849 14.7881C19.4859 14.3361 20.3259 14.3961 20.8569 14.9291V14.9291C21.4459 15.5211 21.4459 16.4801 20.8569 17.0711L18.7929 19.1441C18.2369 19.7021 17.5289 20.0831 16.7569 20.2381L13.8379 20.8241C13.2599 20.9401 12.6629 20.9261 12.0899 20.7821L9.45089 20.1201C9.13589 20.0401 8.81089 20.0001 8.48489 20.0001H6.98389" stroke="#e4253a" stroke-width="1.5" stroke-linecap="round" stroke-linejoin="round"/>
<path d="M12.9599 17H14.4389C15.2719 17 15.9479 16.322 15.9479 15.485V15.182C15.9479 14.487 15.4769 13.881 14.8049 13.713L12.5219 13.14C12.1509 13.047 11.7699 13 11.3879 13V13C10.4649 13 9.56189 13.274 8.79389 13.789L6.98389 15" stroke="#e4253a" stroke-width="1.5" stroke-linecap="round" stroke-linejoin="round"/>
<path fill-rule="evenodd" clip-rule="evenodd" d="M15.2861 3.66116L14.9371 4.03416L14.5871 3.66116C13.8201 2.84316 12.5481 2.77616 11.7001 3.50816V3.50816C10.8331 4.25616 10.7301 5.55316 11.4431 6.45116C12.4631 7.73516 13.6321 9.00316 14.9371 10.0002C16.2751 8.97816 17.4691 7.67216 18.5071 6.35516C19.1811 5.50016 19.0421 4.25916 18.2201 3.54816L18.1821 3.51516C17.3261 2.77616 16.0531 2.84316 15.2861 3.66116V3.66116Z" stroke="#e4253a" stroke-width="1.5" stroke-linecap="round" stroke-linejoin="round"/>
</svg>
