<svg width="24" height="24" viewBox="0 0 24 24" fill="none" xmlns="http://www.w3.org/2000/svg">
<path d="M20.7926 9.52368C21.5826 10.3137 21.5826 11.5946 20.7926 12.3846C20.0026 13.1747 18.7217 13.1747 17.9316 12.3846C17.1416 11.5946 17.1416 10.3137 17.9316 9.52368C18.7217 8.73364 20.0026 8.73364 20.7926 9.52368" stroke="#e4253a" stroke-width="1.5" stroke-linecap="round" stroke-linejoin="round"/>
<path d="M14.2026 5.91236C15.4191 7.12884 15.4191 9.10115 14.2026 10.3176C12.9862 11.5341 11.0139 11.5341 9.79737 10.3176C8.58089 9.10116 8.58089 7.12885 9.79737 5.91236C11.0138 4.69588 12.9862 4.69588 14.2026 5.91236" stroke="#e4253a" stroke-width="1.5" stroke-linecap="round" stroke-linejoin="round"/>
<path d="M6.06846 9.52368C6.85849 10.3137 6.85849 11.5946 6.06846 12.3846C5.27843 13.1747 3.99754 13.1747 3.20751 12.3846C2.41748 11.5946 2.41748 10.3137 3.20751 9.52368C3.99754 8.73364 5.27843 8.73364 6.06846 9.52368" stroke="#e4253a" stroke-width="1.5" stroke-linecap="round" stroke-linejoin="round"/>
<path d="M23 18.9998V17.9038C23 16.5228 21.881 15.4038 20.5 15.4038H19.699" stroke="#e4253a" stroke-width="1.5" stroke-linecap="round" stroke-linejoin="round"/>
<path d="M1 18.9998V17.9038C1 16.5228 2.119 15.4038 3.5 15.4038H4.301" stroke="#e4253a" stroke-width="1.5" stroke-linecap="round" stroke-linejoin="round"/>
<path d="M17.3389 18.9999V17.3989C17.3389 15.4659 15.7719 13.8989 13.8389 13.8989H10.1599C8.22691 13.8989 6.65991 15.4659 6.65991 17.3989V18.9999" stroke="#e4253a" stroke-width="1.5" stroke-linecap="round" stroke-linejoin="round"/>
</svg>
