<svg width="34" height="34" viewBox="0 0 34 34" fill="none" xmlns="http://www.w3.org/2000/svg">
<path opacity="0.6" fill-rule="evenodd" clip-rule="evenodd" d="M21.3195 21.25H24.8739C26.0937 21.25 27.176 22.0306 27.5614 23.188L28.5063 26.0213C29.1183 27.8559 27.7526 29.75 25.8189 29.75H8.18136C6.24761 29.75 4.88194 27.8559 5.49394 26.0213L6.43886 23.188C6.82277 22.0306 7.90652 21.25 9.12627 21.25H12.6821" fill="white"/>
<path fill-rule="evenodd" clip-rule="evenodd" d="M17 25.5C17 25.5 8.5 18.7113 8.5 12.5134C8.5 7.95033 12.3052 4.25 17 4.25C21.6948 4.25 25.5 7.95033 25.5 12.5134C25.5 18.7113 17 25.5 17 25.5Z" fill="#E5F5FE"/>
<path fill-rule="evenodd" clip-rule="evenodd" d="M19.0033 10.7466C20.1098 11.8531 20.1098 13.6471 19.0033 14.7536C17.8968 15.86 16.1029 15.86 14.9964 14.7536C13.8899 13.6471 13.8899 11.8531 14.9964 10.7466C16.1029 9.64013 17.8968 9.64013 19.0033 10.7466" fill="#B12028"/>
<path d="M19.0033 10.7466C20.1098 11.8531 20.1098 13.6471 19.0033 14.7536C17.8968 15.86 16.1029 15.86 14.9964 14.7536C13.8899 13.6471 13.8899 11.8531 14.9964 10.7466C16.1029 9.64013 17.8968 9.64013 19.0033 10.7466" stroke="#B12028" stroke-linecap="round" stroke-linejoin="round"/>
</svg>
