<svg width="32" height="32" viewBox="0 0 32 32" fill="none" xmlns="http://www.w3.org/2000/svg">
<path fill-rule="evenodd" clip-rule="evenodd" d="M11.6118 23.3903L6.80388 25.7682V21.4296C3.93441 19.4702 2.06445 16.3619 2.06445 12.8313C2.06445 6.85836 7.39515 2.06445 13.9163 2.06445C20.4375 2.06445 25.7682 6.85836 25.7682 12.8313C25.7682 18.8043 20.4375 23.5982 13.9163 23.5982C13.1275 23.5982 12.3584 23.5245 11.6118 23.3903Z" fill="#B12028"/>
<path fill-rule="evenodd" clip-rule="evenodd" d="M25.0864 26.8563L28.4519 28.5208V25.4838C30.4606 24.1122 31.7695 21.9365 31.7695 19.465C31.7695 15.284 28.038 11.9282 23.4732 11.9282C18.9084 11.9282 15.1769 15.284 15.1769 19.465C15.1769 23.6461 18.9084 27.0018 23.4732 27.0018C24.0254 27.0018 24.5637 26.9503 25.0864 26.8563Z" fill="#EBA2A6"/>
</svg>
