<svg width="44" height="44" viewBox="0 0 44 44" fill="none" xmlns="http://www.w3.org/2000/svg">
<path fill-rule="evenodd" clip-rule="evenodd" d="M29.3333 38.5H14.6667C12.6408 38.5 11 36.8592 11 34.8333V9.16667C11 7.14083 12.6408 5.5 14.6667 5.5H29.3333C31.3592 5.5 33 7.14083 33 9.16667V34.8333C33 36.8592 31.3592 38.5 29.3333 38.5Z" stroke="#B12028" stroke-width="1.5" stroke-linecap="round" stroke-linejoin="round"/>
<path d="M21.9981 31.6251C21.7451 31.6251 21.5398 31.8304 21.5416 32.0834C21.5416 32.3364 21.7469 32.5417 21.9999 32.5417C22.2529 32.5417 22.4583 32.3364 22.4583 32.0834C22.4583 31.8304 22.2529 31.6251 21.9981 31.6251" stroke="#B12028" stroke-width="1.5" stroke-linecap="round" stroke-linejoin="round"/>
<path d="M19.7083 10.9999H24.2916" stroke="#B12028" stroke-width="1.5" stroke-linecap="round" stroke-linejoin="round"/>
</svg>
