<svg width="20" height="20" viewBox="0 0 20 20" fill="none" xmlns="http://www.w3.org/2000/svg">
<path fill-rule="evenodd" clip-rule="evenodd" d="M13.3333 17.5H6.66667C5.74583 17.5 5 16.7542 5 15.8333V4.16667C5 3.24583 5.74583 2.5 6.66667 2.5H13.3333C14.2542 2.5 15 3.24583 15 4.16667V15.8333C15 16.7542 14.2542 17.5 13.3333 17.5Z" stroke="#B12028" stroke-linecap="round" stroke-linejoin="round"/>
<path opacity="0.5" d="M9.99933 14.3751C9.88433 14.3751 9.791 14.4684 9.79183 14.5834C9.79183 14.6984 9.88517 14.7917 10.0002 14.7917C10.1152 14.7917 10.2085 14.6984 10.2085 14.5834C10.2085 14.4684 10.1152 14.3751 9.99933 14.3751" stroke="#B12028" stroke-linecap="round" stroke-linejoin="round"/>
<path opacity="0.5" d="M8.9585 4.99992H11.0418" stroke="#B12028" stroke-linecap="round" stroke-linejoin="round"/>
</svg>
