<svg width="32" height="32" viewBox="0 0 32 32" fill="none" xmlns="http://www.w3.org/2000/svg">
<path fill-rule="evenodd" clip-rule="evenodd" d="M13.3974 18.492C11.8374 16.932 10.6614 15.1854 9.88005 13.4134C9.71472 13.0387 9.81205 12.6 10.1014 12.3107L11.1934 11.2187C12.0881 10.324 12.0881 9.05871 11.3067 8.27737L9.74139 6.71337C8.70005 5.67204 7.01205 5.67204 5.97072 6.71337L5.10139 7.58137C4.11339 8.56937 3.70139 9.99471 3.96805 11.408C4.62672 14.892 6.65072 18.7067 9.91605 21.972C13.1814 25.2374 16.9961 27.2614 20.4801 27.92C21.8934 28.1867 23.3187 27.7747 24.3067 26.7867L25.1747 25.9187C26.2161 24.8774 26.2161 23.1894 25.1747 22.148L23.6107 20.584C22.8294 19.8027 21.5627 19.8027 20.7827 20.584L19.5787 21.7894C19.2894 22.0787 18.8507 22.176 18.4761 22.0107C16.7041 21.228 14.9574 20.0507 13.3974 18.492Z" stroke="#B12028" stroke-width="2" stroke-linecap="round" stroke-linejoin="round"/>
<path d="M17.2267 6.89344V3.77344" stroke="#B12028" stroke-width="2" stroke-linecap="round" stroke-linejoin="round"/>
<path d="M22.7866 9.09341L24.9866 6.90674" stroke="#B12028" stroke-width="2" stroke-linecap="round" stroke-linejoin="round"/>
<path d="M25 14.6667H28.1067" stroke="#B12028" stroke-width="2" stroke-linecap="round" stroke-linejoin="round"/>
</svg>
