<svg width="21" height="21" viewBox="0 0 21 21" fill="none" xmlns="http://www.w3.org/2000/svg">
<path fill-rule="evenodd" clip-rule="evenodd" d="M6.86255 17.5683C6.54156 17.7405 6.1505 17.7147 5.85489 17.5018C5.55928 17.289 5.41079 16.9263 5.47227 16.5673L6.16185 12.5768L3.24146 9.74932C2.98335 9.4955 2.89128 9.11739 3.00378 8.77332C3.11628 8.42925 3.41395 8.17857 3.77215 8.12626L7.80954 7.54393L9.61293 3.91013C9.77585 3.58468 10.1086 3.37915 10.4725 3.37915C10.8365 3.37915 11.1692 3.58468 11.3321 3.91013L13.1355 7.54393L17.1729 8.12626C17.5311 8.17857 17.8288 8.42925 17.9413 8.77332C18.0538 9.11739 17.9617 9.4955 17.7036 9.74932L14.7816 12.5752L15.4712 16.5657C15.5334 16.925 15.3852 17.2883 15.0895 17.5016C14.7937 17.7149 14.4022 17.7408 14.0809 17.5683L10.4709 15.6862L6.86255 17.5683Z" stroke="#F2C94C" stroke-width="1.5" stroke-linecap="round" stroke-linejoin="round"/>
</svg>
