<svg width="44" height="44" viewBox="0 0 44 44" fill="none" xmlns="http://www.w3.org/2000/svg">
<path fill-rule="evenodd" clip-rule="evenodd" d="M13.6694 38.2501C12.9284 38.6476 12.0256 38.588 11.3431 38.0967C10.6607 37.6053 10.3178 36.768 10.4598 35.9391L12.0518 26.7264L5.30962 20.1989C4.71375 19.6129 4.50118 18.74 4.7609 17.9456C5.02063 17.1513 5.70784 16.5726 6.5348 16.4518L15.8557 15.1074L20.0191 6.71827C20.3952 5.96693 21.1634 5.49243 22.0036 5.49243C22.8438 5.49243 23.612 5.96693 23.9881 6.71827L28.1515 15.1074L37.4724 16.4518C38.2993 16.5726 38.9865 17.1513 39.2462 17.9456C39.506 18.74 39.2934 19.6129 38.6975 20.1989L31.9517 26.7228L33.5437 35.9354C33.6873 36.7649 33.3452 37.6037 32.6624 38.0961C31.9796 38.5885 31.0757 38.6482 30.334 38.2501L21.9999 33.9051L13.6694 38.2501Z" stroke="#B12028" stroke-width="1.5" stroke-linecap="round" stroke-linejoin="round"/>
<path d="M25.0573 21.3892L21.2368 25.2096L18.9424 22.917" stroke="#B12028" stroke-width="1.5" stroke-linecap="round" stroke-linejoin="round"/>
</svg>
