<svg width="20" height="20" viewBox="0 0 20 20" fill="none" xmlns="http://www.w3.org/2000/svg">
<path fill-rule="evenodd" clip-rule="evenodd" d="M5.92115 16.5683C5.60015 16.7405 5.2091 16.7147 4.91349 16.5018C4.61788 16.289 4.46939 15.9263 4.53086 15.5673L5.22044 11.5768L2.30005 8.74932C2.04195 8.4955 1.94987 8.11739 2.06237 7.77332C2.17487 7.42925 2.47254 7.17857 2.83074 7.12626L6.86813 6.54393L8.67153 2.91013C8.83444 2.58468 9.16718 2.37915 9.53112 2.37915C9.89506 2.37915 10.2278 2.58468 10.3907 2.91013L12.1941 6.54393L16.2315 7.12626C16.5897 7.17857 16.8874 7.42925 16.9999 7.77332C17.1124 8.11739 17.0203 8.4955 16.7622 8.74932L13.8402 11.5752L14.5298 15.5657C14.592 15.925 14.4438 16.2883 14.1481 16.5016C13.8523 16.7149 13.4608 16.7408 13.1395 16.5683L9.52953 14.6862L5.92115 16.5683Z" fill="#F2C94C" stroke="#F2C94C" stroke-width="1.5" stroke-linecap="round" stroke-linejoin="round"/>
</svg>
