<svg width="44" height="44" viewBox="0 0 44 44" fill="none" xmlns="http://www.w3.org/2000/svg">
<path fill-rule="evenodd" clip-rule="evenodd" d="M33.3739 10.5637C30.3563 7.54419 26.3431 5.87952 22.0678 5.87769C13.2549 5.87769 6.08477 13.0442 6.08293 21.8534C6.07927 24.6565 6.81443 27.412 8.2151 29.8412L5.94727 38.1205L14.4209 35.8985C16.7658 37.1745 19.3911 37.8437 22.0604 37.8437H22.0678C30.8769 37.8437 38.0471 30.6754 38.0508 21.8662C38.0526 17.5982 36.3916 13.585 33.3739 10.5637Z" stroke="#B12028" stroke-width="1.5" stroke-linecap="round" stroke-linejoin="round"/>
<path d="M24.0076 24.8598L24.7519 24.121C25.4357 23.4427 26.5174 23.3565 27.3057 23.9102C28.0684 24.4455 28.7577 24.9258 29.3994 25.3732C30.4187 26.0808 30.5416 27.5328 29.6634 28.4092L29.0052 29.0673" stroke="#B12028" stroke-width="1.5" stroke-linecap="round" stroke-linejoin="round"/>
<path d="M14.9326 14.9947L15.5908 14.3366C16.4671 13.4602 17.9191 13.5831 18.6268 14.6006C19.0723 15.2422 19.5526 15.9316 20.0898 16.6942C20.6435 17.4826 20.5591 18.5642 19.879 19.2481L19.1401 19.9924" stroke="#B12028" stroke-width="1.5" stroke-linecap="round" stroke-linejoin="round"/>
<path d="M29.0053 29.0675C26.2902 31.7698 21.727 29.4745 18.1245 25.8701" stroke="#B12028" stroke-width="1.5" stroke-linecap="round" stroke-linejoin="round"/>
<path d="M18.1281 25.8755C14.5256 22.2711 12.2303 17.7098 14.9326 14.9946" stroke="#B12028" stroke-width="1.5" stroke-linecap="round" stroke-linejoin="round"/>
<path d="M19.1401 19.9924C19.725 20.9146 20.4748 21.8276 21.3218 22.6746L21.3255 22.6783C22.1725 23.5253 23.0855 24.2751 24.0076 24.8599" stroke="#B12028" stroke-width="1.5" stroke-linecap="round" stroke-linejoin="round"/>
</svg>
