<svg width="87" height="24" viewBox="0 0 87 24" fill="none" xmlns="http://www.w3.org/2000/svg">
<path d="M0.478495 1.91398C0.478495 1.12118 1.12118 0.478495 1.91398 0.478495H85.086C85.8788 0.478495 86.5215 1.12118 86.5215 1.91398V11V20.086C86.5215 20.8788 85.8788 21.5215 85.086 21.5215H1.91398C1.12118 21.5215 0.478495 20.8788 0.478495 20.086V1.91398Z" fill="#F6D317" stroke="#002A3A" stroke-width="0.956989"/>
<path d="M0.478495 1.91398C0.478495 1.12118 1.12118 0.478495 1.91398 0.478495H8.6129C9.4057 0.478495 10.0484 1.12118 10.0484 1.91398V11.0054V20.0968C10.0484 20.8896 9.4057 21.5323 8.6129 21.5323H1.91398C1.12118 21.5323 0.478495 20.8896 0.478495 20.0968V1.91398Z" fill="#172EF6" stroke="#002A3A" stroke-width="0.956989"/>
<path d="M5.46332 15.8034V18.3547H4.64277L3.91382 16.9548C3.87768 16.885 3.82099 16.7629 3.74373 16.5884L3.66149 16.4052L3.58112 16.2221H3.56242L3.5699 16.3903L3.57551 16.5566L3.57925 16.8912V18.3547H3.09514V15.8034H3.91569L4.57922 17.0968C4.63779 17.2115 4.7057 17.3504 4.78296 17.5136L4.88015 17.7211L4.97735 17.9304H4.99417L4.98856 17.766L4.98295 17.6015L4.97922 17.2725V15.8034H5.46332ZM6.78067 15.8034V17.9211H7.97691V18.3547H6.29657V15.8034H6.78067Z" fill="white"/>
<path d="M18.418 11.6729V10.7773L18.7734 10.7842C20.0312 10.7842 20.7992 10.7044 21.0771 10.5449C21.3597 10.3854 21.501 9.9502 21.501 9.23926C21.501 8.41895 21.3779 7.91764 21.1318 7.73535C20.8903 7.55306 20.2181 7.46191 19.1152 7.46191C18.099 7.46191 17.4701 7.55078 17.2285 7.72852C16.9915 7.90625 16.873 8.37337 16.873 9.12988V9.5332H15.875L15.8818 9.16406C15.8818 8.09766 16.0892 7.40039 16.5039 7.07227C16.9186 6.73958 17.7936 6.57324 19.1289 6.57324C20.5007 6.57324 21.4053 6.72819 21.8428 7.03809C22.2848 7.34342 22.5059 7.97689 22.5059 8.93848C22.5059 9.75423 22.401 10.3125 22.1914 10.6133C21.9818 10.9141 21.5625 11.1032 20.9336 11.1807V11.2285C21.64 11.3242 22.1071 11.5156 22.335 11.8027C22.5674 12.0898 22.6836 12.623 22.6836 13.4023C22.6836 14.487 22.458 15.207 22.0068 15.5625C21.5602 15.918 20.6556 16.0957 19.293 16.0957C17.821 16.0957 16.8571 15.9316 16.4014 15.6035C15.9456 15.2754 15.7178 14.5804 15.7178 13.5186V12.9648H16.7432V13.5049C16.7432 14.2979 16.8776 14.7809 17.1465 14.9541C17.4154 15.1227 18.1787 15.207 19.4365 15.207C20.4118 15.207 21.0293 15.0999 21.2891 14.8857C21.5488 14.667 21.6787 14.1475 21.6787 13.3271C21.6787 12.639 21.5557 12.1924 21.3096 11.9873C21.0635 11.7777 20.528 11.6729 19.7031 11.6729H18.8145H18.418ZM30.243 6.66895V16H29.1903V7.45508L26.8046 10.1006L26.1415 9.47168L28.7255 6.66895H30.243ZM34.4461 12.1582H37.3308V13.0469H34.4255L34.4461 12.1582ZM40.3991 6.66895V15.0225H45.1979V16H39.3463V6.66895H40.3991ZM48.314 6.66895V10.7432H49.2368L53.065 6.66895H54.4253L50.1597 11.167L54.9448 16H53.5025L49.2368 11.6318H48.314V16H47.2612V6.66895H48.314ZM55.9623 12.1582H58.8471V13.0469H55.9418L55.9623 12.1582ZM61.9153 6.66895V10.7432H62.8382L66.6663 6.66895H68.0266L63.761 11.167L68.5462 16H67.1038L62.8382 11.6318H61.9153V16H60.8626V6.66895H61.9153ZM76.9054 6.66895V7.55762H71.6691L71.6213 10.3877H71.6418C72.0063 9.87272 72.8244 9.61523 74.0959 9.61523C75.3263 9.61523 76.1649 9.82715 76.6115 10.251C77.0627 10.6748 77.2882 11.4723 77.2882 12.6436C77.2882 14.0745 77.074 15.0088 76.6457 15.4463C76.2218 15.8792 75.3149 16.0957 73.925 16.0957C72.5441 16.0957 71.619 15.9339 71.1496 15.6104C70.6847 15.2868 70.4523 14.6465 70.4523 13.6895V13.334H71.4435C71.4435 14.1771 71.5734 14.7012 71.8332 14.9062C72.0975 15.1068 72.7674 15.207 73.8429 15.207C74.9686 15.207 75.6567 15.0771 75.9074 14.8174C76.158 14.5576 76.2834 13.8467 76.2834 12.6846C76.2834 11.7458 76.1421 11.1488 75.8595 10.8936C75.5815 10.6338 74.9321 10.5039 73.9113 10.5039C72.4894 10.5039 71.7101 10.8024 71.5734 11.3994H70.6232V6.66895H76.9054Z" fill="#002A3A"/>
</svg>
